#!OML:ASF H:\Terrain\Patient Classification 1\Takeo\Monday\TakeoMonday.ASF
:FULLY-SPECIFIED
:DEGREES
235
root 18.2613 17.5513 0.151866 -3.72079 -33.966 -1.692
lowerback 3.86025 5.90349 2.72319
upperback 1.83045 7.95765 1.92379
thorax -0.170623 3.98102 0.160014
lowerneck -13.6714 -2.79225 -4.11803
upperneck 5.02903 -3.34825 3.98022
head 3.84375 -1.52291 1.64339
rclavicle -9.83906e-014 7.95139e-016
rhumerus 50.9445 -6.48983 -89.8656
rradius 31.5758
rwrist -29.8894
rhand -51.8348 29.2543
rfingers 7.12502
rthumb -24.3491 0.781082
lclavicle -9.83906e-014 7.95139e-016
lhumerus 33.2615 -13.9668 42.5024
lradius 78.5554
lwrist 27.1999
lhand -21.6613 19.6304
lfingers 7.12502
lthumb 4.73579 49.5575
rfemur 10.8047 -7.30439 13.0495
rtibia 30.616
rfoot -16.2068 -39.5735
rtoes 0.127448
lfemur -14.6575 -6.3961 -19.6748
ltibia 34.123
lfoot -10.3186 3.35878
ltoes -4.1453
236
root 18.2414 17.5508 0.181411 -3.5002 -33.348 -1.7387
lowerback 3.61182 6.14267 2.75239
upperback 1.79867 8.26875 1.76027
thorax -0.0322119 4.13926 -0.00195245
lowerneck -13.6131 -3.08935 -3.85887
upperneck 4.69861 -3.80238 4.20181
head 3.75162 -1.73146 1.63813
rclavicle -1.15388e-014 -9.93923e-015
rhumerus 51.8301 -5.44769 -90.3463
rradius 31.4711
rwrist -30.077
rhand -53.0599 32.6255
rfingers 7.12502
rthumb -25.5231 4.31507
lclavicle -1.15388e-014 -9.93923e-015
lhumerus 34.3237 -13.7423 41.8236
lradius 78.4097
lwrist 27.3958
lhand -21.7013 20.1241
lfingers 7.12502
lthumb 4.69717 50.052
rfemur 10.827 -7.30053 13.1901
rtibia 30.6341
rfoot -15.5976 -39.7469
rtoes 0.926947
lfemur -14.8367 -6.66065 -19.6861
ltibia 34.1446
lfoot -10.2662 3.13654
ltoes -5.315
237
root 18.2186 17.5531 0.211416 -3.46588 -32.7255 -1.63543
lowerback 3.40918 6.37464 2.61696
upperback 1.88361 8.56399 1.60876
thorax 0.176614 4.28998 -0.0581111
lowerneck -14.2802 -3.35699 -3.32688
upperneck 5.05827 -4.22092 3.94409
head 3.96747 -1.93109 1.43137
rclavicle -1.33248e-014 1.82882e-014
rhumerus 52.9054 -4.23471 -90.5274
rradius 31.2611
rwrist -30.5871
rhand -53.6372 34.0149
rfingers 7.12502
rthumb -26.076 5.78479
lclavicle -1.33248e-014 1.82882e-014
lhumerus 35.3396 -13.3654 41.347
lradius 78.2456
lwrist 27.5216
lhand -21.7983 20.3613
lfingers 7.12502
lthumb 4.60356 50.2913
rfemur 10.9264 -7.41921 13.1681
rtibia 30.6462
rfoot -14.2142 -39.9339
rtoes -0.36355
lfemur -14.866 -6.87619 -19.8273
ltibia 34.1141
lfoot -10.0392 2.83534
ltoes -6.36135
238
root 18.1998 17.5679 0.246606 -3.38251 -31.9752 -1.70362
lowerback 3.22007 6.53283 2.70881
upperback 2.03374 8.76566 1.62601
thorax 0.451045 4.39515 -0.0578276
lowerneck -14.8406 -3.67069 -3.60891
upperneck 5.21038 -4.59579 4.17684
head 4.12895 -2.10039 1.50926
rclavicle -1.15916e-014 1.15295e-014
rhumerus 54.0843 -2.84336 -90.3422
rradius 30.9515
rwrist -31.1693
rhand -53.4414 33.4523
rfingers 7.12502
rthumb -25.8885 5.19467
lclavicle -1.15916e-014 1.15295e-014
lhumerus 36.1737 -12.8575 41.218
lradius 78.056
lwrist 27.4536
lhand -22.0336 19.878
lfingers 7.12502
lthumb 4.3763 49.8128
rfemur 11.1072 -7.59816 13.3058
rtibia 30.6462
rfoot -12.9935 -40.0524
rtoes -1.74121
lfemur -14.8332 -7.32417 -19.8382
ltibia 34.0516
lfoot -9.69562 2.5192
ltoes -6.78595
239
root 18.1829 17.5791 0.277722 -3.01029 -31.3145 -1.90012
lowerback 2.63764 6.64458 3.20573
upperback 2.25373 8.89557 1.43276
thorax 1.11 4.47525 -0.421526
lowerneck -14.9162 -3.89354 -3.99734
upperneck 4.55818 -4.86655 4.95402
head 3.98158 -2.2006 1.79233
rclavicle -5.18145e-014 1.63003e-014
rhumerus 55.3961 -1.53845 -90.7045
rradius 30.8539
rwrist -31.4703
rhand -53.2212 33.1967
rfingers 7.12502
rthumb -25.6776 4.90854
lclavicle -5.18145e-014 1.63003e-014
lhumerus 37.1542 -12.1161 40.5043
lradius 78.0037
lwrist 27.6599
lhand -22.2637 19.295
lfingers 7.12502
lthumb 4.15412 49.2343
rfemur 11.0605 -7.61078 13.6123
rtibia 30.6241
rfoot -12.7335 -40.0624
rtoes -1.25903
lfemur -15.0661 -7.73264 -19.6943
ltibia 33.9983
lfoot -9.57682 2.24402
ltoes -6.24133
240
root 18.1646 17.5774 0.311438 -3.08791 -30.727 -1.6995
lowerback 1.72745 6.61611 3.77688
upperback 2.92371 8.81217 0.866507
thorax 2.48272 4.47209 -1.11706
lowerneck -15.446 -3.90906 -3.59656
upperneck 3.93458 -4.96159 5.38741
head 3.88063 -2.21381 1.8514
rclavicle 5.9449e-015 1.11319e-014
rhumerus 57.2633 0.0414984 -91.6881
rradius 30.7501
rwrist -31.6655
rhand -53.0314 32.8732
rfingers 7.12502
rthumb -25.4958 4.55889
lclavicle 5.9449e-015 1.11319e-014
lhumerus 38.2549 -10.6764 39.1673
lradius 78.0867
lwrist 28.1162
lhand -22.049 19.5793
lfingers 7.12502
lthumb 4.36145 49.5144
rfemur 11.3289 -7.48095 13.48
rtibia 30.5339
rfoot -13.8389 -39.9794
rtoes 0.402312
lfemur -15.0327 -8.05432 -19.9707
ltibia 34.0032
lfoot -9.98791 2.10637
ltoes -4.80106
241
root 18.1477 17.5778 0.350628 -3.13361 -30.0173 -1.82821
lowerback 2.83001 6.78998 3.02688
upperback 2.0382 9.1009 1.56959
thorax 0.737624 4.56935 -0.235001
lowerneck -14.7496 -4.27409 -4.32232
upperneck 4.74332 -5.31627 4.85648
head 4.03721 -2.43456 1.77782
rclavicle 1.06406e-013 5.96354e-015
rhumerus 56.529 1.89296 -90.1165
rradius 30.627
rwrist -32.5573
rhand -53.4638 33.4207
rfingers 7.12502
rthumb -25.91 5.16622
lclavicle 1.06406e-013 5.96354e-015
lhumerus 37.4389 -11.382 40.0178
lradius 78.0735
lwrist 28.3085
lhand -21.7494 19.9384
lfingers 7.12502
lthumb 4.65072 49.8673
rfemur 11.7944 -7.47568 13.6786
rtibia 30.3567
rfoot -14.5103 -40.1644
rtoes 1.42317
lfemur -14.8924 -8.42363 -19.9624
ltibia 34.089
lfoot -10.5103 1.85038
ltoes -2.98019
242
root 18.131 17.586 0.385163 -2.75665 -29.2434 -2.24328
lowerback 2.5487 6.87207 3.45361
upperback 2.04393 9.20532 1.60552
thorax 0.96384 4.62814 -0.385359
lowerneck -14.6738 -4.59797 -4.44626
upperneck 4.52337 -5.72805 4.94467
head 3.98223 -2.63721 1.79364
rclavicle 2.20899e-014 4.37326e-015
rhumerus 57.4487 3.51441 -89.5369
rradius 30.6451
rwrist -33.1767
rhand -53.6775 33.8244
rfingers 7.12502
rthumb -26.1146 5.59999
lclavicle 2.20899e-014 4.37326e-015
lhumerus 38.1128 -10.9679 39.577
lradius 77.9781
lwrist 28.3256
lhand -21.8046 20.1303
lfingers 7.12502
lthumb 4.59745 50.0604
rfemur 11.9456 -7.68273 14.2169
rtibia 30.1083
rfoot -13.4301 -40.4928
rtoes 1.04746
lfemur -15.1468 -8.79223 -19.5936
ltibia 34.2246
lfoot -10.7086 1.40319
ltoes -1.61022
243
root 18.1119 17.5978 0.425248 -2.41137 -28.5173 -2.3421
lowerback 2.28503 7.06237 3.52588
upperback 2.01756 9.44973 1.52268
thorax 1.11669 4.75345 -0.471898
lowerneck -15.0419 -4.973 -4.73431
upperneck 4.46863 -6.20871 5.52027
head 4.07496 -2.84109 1.96934
rclavicle 7.25626e-014 2.38542e-015
rhumerus 58.326 4.83618 -88.7806
rradius 30.92
rwrist -33.8784
rhand -53.2813 33.5558
rfingers 7.12502
rthumb -25.7352 5.27596
lclavicle 7.25626e-014 2.38542e-015
lhumerus 38.8167 -10.5298 39.8029
lradius 78.0605
lwrist 27.8983
lhand -21.8352 20.0725
lfingers 7.12502
lthumb 4.56789 50.0033
rfemur 12.0065 -8.01637 14.3599
rtibia 29.846
rfoot -12.5161 -40.5324
rtoes 0.359383
lfemur -15.5044 -9.25244 -19.5251
ltibia 34.3646
lfoot -10.796 1.0764
ltoes -0.866311
